<?xml version="1.0" encoding="utf-8"?>
<!-- Generator: Adobe Illustrator 16.0.0, SVG Export Plug-In . SVG Version: 6.00 Build 0)  -->
<!DOCTYPE svg PUBLIC "-//W3C//DTD SVG 1.1//EN" "http://www.w3.org/Graphics/SVG/1.1/DTD/svg11.dtd">
<svg version="1.1" id="Layer_1" xmlns="http://www.w3.org/2000/svg" xmlns:xlink="http://www.w3.org/1999/xlink" x="0px" y="0px"
	 width="45px" height="92px" viewBox="34.75 253.235 45 92" enable-background="new 34.75 253.235 45 92" xml:space="preserve">
<path id="github-icon" fill="none" stroke="#00ACC1" stroke-miterlimit="10" d="M57.25,255.235
	c-11.874,0-21.501,9.626-21.501,21.501c0,9.5,6.161,17.561,14.705,20.402c1.074,0.199,1.421-0.465,1.421-1.033v-4.004
	c-5.98,1.301-7.228-2.537-7.228-2.537c-0.976-2.484-2.386-3.146-2.386-3.146c-1.951-1.332,0.147-1.307,0.147-1.307
	c2.159,0.15,3.296,2.217,3.296,2.217c1.917,3.287,5.029,2.336,6.258,1.787c0.192-1.391,0.749-2.338,1.365-2.877
	c-4.778-0.541-9.796-2.387-9.796-10.625c0-2.35,0.84-4.266,2.215-5.771c-0.225-0.543-0.958-2.729,0.207-5.689
	c0,0,1.806-0.578,5.914,2.205c1.716-0.477,3.555-0.717,5.382-0.725c1.826,0.008,3.669,0.248,5.385,0.725
	c4.105-2.783,5.908-2.205,5.908-2.205c1.17,2.961,0.433,5.146,0.211,5.689c1.378,1.506,2.213,3.422,2.213,5.771
	c0,8.262-5.031,10.076-9.818,10.609c0.77,0.666,1.476,1.977,1.476,3.982c0,2.877,0,5.193,0,5.9c0,0.57,0.343,1.242,1.435,1.031
	c8.539-2.846,14.691-10.902,14.691-20.4C78.751,264.861,69.124,255.235,57.25,255.235z"/>
<path id="github-icon_1_" fill="#00ACC1" d="M57.25,302.104c-11.856,0-21.47,9.611-21.47,21.471c0,9.484,6.152,17.533,14.684,20.371
	c1.072,0.199,1.418-0.465,1.418-1.031v-4c-5.972,1.303-7.216-2.531-7.216-2.531c-0.975-2.482-2.383-3.141-2.383-3.141
	c-1.948-1.334,0.147-1.309,0.147-1.309c2.156,0.154,3.292,2.215,3.292,2.215c1.915,3.281,5.021,2.334,6.249,1.785
	c0.191-1.389,0.748-2.334,1.363-2.869c-4.771-0.543-9.781-2.385-9.781-10.613c0-2.346,0.839-4.26,2.212-5.762
	c-0.224-0.545-0.957-2.727,0.206-5.684c0,0,1.804-0.576,5.906,2.201c1.713-0.475,3.551-0.715,5.375-0.723
	c1.823,0.008,3.665,0.248,5.378,0.723c4.099-2.777,5.898-2.201,5.898-2.201c1.169,2.957,0.433,5.139,0.211,5.684
	c1.377,1.502,2.21,3.416,2.21,5.762c0,8.248-5.023,10.062-9.804,10.594c0.769,0.664,1.474,1.975,1.474,3.977
	c0,2.871,0,5.186,0,5.893c0,0.57,0.343,1.24,1.433,1.031c8.527-2.844,14.67-10.889,14.67-20.371
	C78.72,311.718,69.106,302.104,57.25,302.104z"/>
</svg>
