<?xml version="1.0" encoding="utf-8"?>
<!-- Generator: Adobe Illustrator 16.0.0, SVG Export Plug-In . SVG Version: 6.00 Build 0)  -->
<!DOCTYPE svg PUBLIC "-//W3C//DTD SVG 1.1//EN" "http://www.w3.org/Graphics/SVG/1.1/DTD/svg11.dtd">
<svg version="1.1" id="Layer_1" xmlns="http://www.w3.org/2000/svg" xmlns:xlink="http://www.w3.org/1999/xlink" x="0px" y="0px"
	 width="45px" height="92px" viewBox="3.625 465.358 45 92" enable-background="new 3.625 465.358 45 92" xml:space="preserve">
<path id="linkedin-icon" fill="none" stroke="#00ACC1" stroke-miterlimit="10" d="M15.149,471.491c0,2.833-2.279,5.133-5.091,5.133
	s-5.091-2.3-5.091-5.133c0-2.835,2.279-5.133,5.091-5.133S15.149,468.656,15.149,471.491z M14.404,480.265h-8.61v27.812h8.61
	V480.265z M28.166,480.265h-8.257v27.812h8.257c0,0,0-10.312,0-14.599c0-3.91,1.8-6.238,5.247-6.238
	c3.166,0,4.687,2.234,4.687,6.238c0,4.006,0,14.599,0,14.599h8.567c0,0,0-10.159,0-17.608c0-7.45-4.222-11.051-10.12-11.051
	c-5.898,0-8.381,4.593-8.381,4.593V480.265L28.166,480.265z"/>
<path id="linkedin-icon_1_" fill="#00ACC1" d="M15.149,519.771c0,2.834-2.279,5.133-5.091,5.133s-5.091-2.299-5.091-5.133
	s2.279-5.135,5.091-5.135S15.149,516.938,15.149,519.771z M14.404,528.545h-8.61v27.813h8.61V528.545z M28.166,528.545h-8.257
	v27.813h8.257c0,0,0-10.314,0-14.601c0-3.911,1.8-6.24,5.247-6.24c3.166,0,4.687,2.237,4.687,6.24c0,4.006,0,14.601,0,14.601h8.567
	c0,0,0-10.161,0-17.611c0-7.449-4.222-11.05-10.12-11.05c-5.898,0-8.381,4.594-8.381,4.594V528.545L28.166,528.545z"/>
</svg>
