<?xml version="1.0" encoding="utf-8"?>
<!-- Generator: Adobe Illustrator 16.0.0, SVG Export Plug-In . SVG Version: 6.00 Build 0)  -->
<!DOCTYPE svg PUBLIC "-//W3C//DTD SVG 1.1 Tiny//EN" "http://www.w3.org/Graphics/SVG/1.1/DTD/svg11-tiny.dtd">
<svg version="1.1" baseProfile="tiny" id="Layer_1" xmlns="http://www.w3.org/2000/svg" xmlns:xlink="http://www.w3.org/1999/xlink"
	 x="0px" y="0px" width="48px" height="96px" viewBox="0 0 48 96" xml:space="preserve">
<polygon fill="#00ACC1" points="1.215,90.144 1.215,85.302 3.019,85.302 3.874,84.543 4.633,83.309 4.633,78.467 4.633,61.188 
	4.158,59.765 2.924,59.004 1.215,59.004 1.215,54.258 17.924,54.258 23.431,74.858 23.905,74.858 29.507,54.258 46.311,54.258 
	46.311,59.194 44.411,59.479 43.082,60.618 42.703,62.422 42.798,71.726 42.798,82.453 43.652,84.732 44.981,85.492 46.311,85.587 
	46.785,90.144 30.836,90.144 30.836,85.302 33.874,85.207 33.684,61.567 25.234,90.144 19.918,90.144 10.993,61.758 10.993,85.207 
	14.602,85.396 14.696,90.144 "/>
<polygon fill="none" stroke="#00ACC1" stroke-miterlimit="10" points="1.215,42.441 1.215,37.601 3.019,37.601 3.873,36.841 
	4.633,35.606 4.633,30.765 4.633,13.486 4.158,12.062 2.924,11.303 1.215,11.303 1.215,6.556 17.924,6.556 23.43,27.157 
	23.905,27.157 29.507,6.556 46.311,6.556 46.311,11.492 44.411,11.777 43.082,12.917 42.703,14.72 42.797,24.024 42.797,34.752 
	43.652,37.03 44.981,37.79 46.311,37.885 46.785,42.441 30.836,42.441 30.836,37.601 33.874,37.505 33.684,13.866 25.234,42.441 
	19.918,42.441 10.993,14.056 10.993,37.505 14.602,37.695 14.696,42.441 "/>
</svg>
