<?xml version="1.0" encoding="utf-8"?>
<!-- Generator: Adobe Illustrator 16.0.0, SVG Export Plug-In . SVG Version: 6.00 Build 0)  -->
<!DOCTYPE svg PUBLIC "-//W3C//DTD SVG 1.1//EN" "http://www.w3.org/Graphics/SVG/1.1/DTD/svg11.dtd">
<svg version="1.1" id="Layer_1" xmlns="http://www.w3.org/2000/svg" xmlns:xlink="http://www.w3.org/1999/xlink" x="0px" y="0px"
	 width="48px" height="96px" viewBox="1.8 397.124 48 96" enable-background="new 1.8 397.124 48 96" xml:space="preserve">
<path id="twitter-icon" fill="#00ACC1" d="M48.8,455.111c-1.652,0.732-3.426,1.228-5.289,1.449c1.901-1.14,3.361-2.944,4.049-5.095
	c-1.779,1.056-3.75,1.823-5.848,2.234c-1.68-1.79-4.073-2.906-6.722-2.906c-5.943,0-10.313,5.546-8.97,11.306
	c-7.653-0.384-14.439-4.05-18.981-9.621c-2.412,4.138-1.251,9.554,2.85,12.295c-1.509-0.049-2.929-0.463-4.17-1.151
	c-0.101,4.267,2.958,8.255,7.386,9.145c-1.296,0.353-2.715,0.434-4.159,0.158c1.171,3.658,4.573,6.319,8.603,6.395
	c-3.872,3.035-8.748,4.391-13.634,3.813c4.075,2.612,8.916,4.138,14.116,4.138c17.097,0,26.756-14.44,26.174-27.393
	C46.005,458.58,47.565,456.957,48.8,455.111z"/>
<path id="twitter-icon_1_" fill="none" stroke="#00ACC1" stroke-miterlimit="10" d="M48.8,407.102
	c-1.652,0.732-3.426,1.227-5.289,1.448c1.901-1.139,3.361-2.942,4.049-5.093c-1.779,1.055-3.75,1.821-5.848,2.234
	c-1.679-1.79-4.073-2.908-6.722-2.908c-5.943,0-10.313,5.547-8.969,11.307c-7.654-0.383-14.439-4.051-18.982-9.621
	c-2.412,4.138-1.25,9.554,2.85,12.295c-1.509-0.048-2.929-0.462-4.171-1.153c-0.1,4.268,2.958,8.257,7.386,9.146
	c-1.296,0.354-2.715,0.434-4.159,0.158c1.171,3.658,4.573,6.32,8.603,6.395c-3.872,3.034-8.749,4.39-13.634,3.813
	c4.075,2.613,8.916,4.138,14.116,4.138c17.097,0,26.756-14.441,26.174-27.393C46.005,410.568,47.565,408.946,48.8,407.102z"/>
</svg>
